<?xml version="1.0" encoding="UTF-8"?>
<svg id="Layer_1" xmlns="http://www.w3.org/2000/svg" version="1.1" viewBox="0 0 967.7 1112.6">
  <!-- Generator: Adobe Illustrator 29.1.0, SVG Export Plug-In . SVG Version: 2.1.0 Build 142)  -->
  <defs>
    <style>
      .st0 {
        fill: #016068;
      }

      .st1 {
        fill: #06a384;
      }
    </style>
  </defs>
  <path class="st1" d="M715.3,457.3h-283.7c-33,0-54.4,21.3-54.4,54.4s21.4,54.4,54.4,54.4h71l-113.6,423.8c-1.5,5.4-2.2,10.5-2.2,15.4,0,14.4,5.8,27.5,16.9,38,10.7,10.2,23.8,15.5,37.9,15.5,25.5,0,45-14.9,52.2-40.3l121.5-452.4h100c33,0,54.4-21.3,54.4-54.4s-21.3-54.4-54.4-54.4Z"/>
  <g>
    <path class="st0" d="M316.2,514.2c.1-25.1-17.1-52.7-50.4-56.7-31-3.8-147.2-4.8-180.2.6-20.9,4-28.2,14.6-35.9,26.4-5.7,8.7-8.8,18.8-8.8,29.2h0c0,15,6.2,29.6,17.5,39.5,27.7,24.3,63.9,20,114.1,20.7,63.6-.9,141.1,7.6,143.7-59.6Z"/>
    <path class="st0" d="M242.7,144.6c-69.7-13.8-87.5,56.9-48.7,101.8,31.4,31.3,102,122.8,152.2,122.8,46.6-6.4,76.4-45,29.9-105.1-6.9-8.7-107.6-114.7-133.4-119.5Z"/>
    <path class="st0" d="M593.2,41c-21.7-43.8-99.2-35.7-105.4,14.8-4.7,28.7-4.7,156.8,0,185.2,5.6,42.3,68.9,61.4,97.4,28.4h0c9.9-10.8,14.3-29.9,15.3-38.4,1.8-43.9,10.7-148.9-7.3-190.1Z"/>
    <path class="st0" d="M899.2,159.2c-17.3-20.8-62.4-21.4-82.6-.2-19.2,14.3-101.7,96.5-114.9,115.9-37.3,52.5,9.7,105.9,57.4,92,9.2-2.7,17.3-8.3,24.1-15.1,21-20.9,82.9-82.7,111.5-111.4,13.5-13.5,21.2-32.5,18.5-51.4-1.7-11.7-6.3-22.2-14-29.9Z"/>
    <path class="st0" d="M333.4,658c-11.6,1.9-23.5,10.2-34.7,18.9-9.5,7.4-109.8,104.7-117.8,120.1-22.4,40.1,2.3,88,46.7,87.5.1,0,.2,0,.3,0,15.9,0,31-7.4,42.2-18.8l118.6-119.8c29.3-37.1-9-97.7-55.3-87.9Z"/>
  </g>
</svg>